<svg width="158" height="32" viewBox="0 0 158 32" fill="none" xmlns="http://www.w3.org/2000/svg">
<path fill-rule="evenodd" clip-rule="evenodd" d="M7.76531 0.000275206H26.4552C30.1119 0.0991387 33.0276 3.08719 33.0372 6.7456V31.9999H25.1144V24.0965H8.86232V31.9999H0.939453V6.7456C0.944789 4.94415 1.66826 3.21922 2.94955 1.95305C4.23084 0.68688 5.96412 -0.0159619 7.76531 0.000275206ZM9.06552 16.2541H25.3176V11.0936C25.3122 10.2476 24.971 9.43836 24.369 8.84396C23.7671 8.24957 22.9537 7.91867 22.1078 7.92408H12.1128C10.3832 8.00093 9.03073 9.4437 9.06552 11.1748V16.2541Z" fill="white"/>
<path fill-rule="evenodd" clip-rule="evenodd" d="M63.4896 0.000358582H38.0552V19.7284H45.978V7.92408H59.1422C60.8879 7.93517 62.3003 9.34772 62.3114 11.0936V20.8865C62.3003 22.6323 60.8879 24.0449 59.1422 24.056H50.813V31.9797H63.5099C67.2303 31.9685 70.2434 28.9551 70.2545 25.2344V6.74568C70.2433 3.01706 67.2179 0.000341718 63.4896 0.000358582V0.000358582Z" fill="white"/>
<rect x="38.0552" y="24.0966" width="7.90256" height="7.9034" fill="#FEB246"/>
<path fill-rule="evenodd" clip-rule="evenodd" d="M144.303 18.7735C144.292 15.0528 141.279 12.0393 137.558 12.0282H122.322C121.2 12.0282 120.29 11.1185 120.29 9.99644C120.29 8.87435 121.2 7.96471 122.322 7.96471H144.303V0.000358582H118.868C115.148 0.0115152 112.135 3.02497 112.124 6.74568V13.2472C112.135 16.9679 115.148 19.9814 118.868 19.9925H134.105C135.227 19.9925 136.136 20.9022 136.136 22.0242C136.136 23.1463 135.227 24.056 134.105 24.056H124.861V31.9797H137.558C141.279 31.9685 144.292 28.9551 144.303 25.2344V18.7735Z" fill="white"/>
<rect x="112.124" y="24.0966" width="7.90255" height="7.9034" fill="#FEB246"/>
<rect x="149.158" y="24.0966" width="7.90256" height="7.9034" fill="#FEB246"/>
<path fill-rule="evenodd" clip-rule="evenodd" d="M107.268 18.7735C107.246 15.0449 104.211 12.0372 100.483 12.0485H85.2469C84.1249 12.0485 83.2154 11.1388 83.2154 10.0168C83.2154 8.89467 84.1249 7.98503 85.2469 7.98503H107.268V0.000358582H81.834C78.1136 0.0115152 75.1005 3.02497 75.0894 6.74568V13.2472C75.1005 16.9679 78.1136 19.9814 81.834 19.9925H97.0702C98.1922 19.9925 99.1018 20.9022 99.1018 22.0242C99.1018 23.1463 98.1922 24.056 97.0702 24.056H87.8472V31.9797H100.483C104.203 31.9685 107.217 28.9551 107.228 25.2344L107.268 18.7735Z" fill="white"/>
<rect x="75.0894" y="24.0966" width="7.90256" height="7.9034" fill="#FEB246"/>
</svg>
