<?xml version="1.0" encoding="UTF-8" standalone="no"?><!DOCTYPE svg PUBLIC "-//W3C//DTD SVG 1.1//EN" "http://www.w3.org/Graphics/SVG/1.1/DTD/svg11.dtd"><svg width="100%" height="100%" viewBox="0 0 448 126" version="1.1" xmlns="http://www.w3.org/2000/svg" xmlns:xlink="http://www.w3.org/1999/xlink" xml:space="preserve" xmlns:serif="http://www.serif.com/" style="fill-rule:evenodd;clip-rule:evenodd;stroke-linejoin:round;stroke-miterlimit:2;"><g><path d="M127.295,9.779c0,5.401 -4.377,9.778 -9.778,9.778c-5.4,0 -9.779,-4.377 -9.779,-9.779c0,-5.4 4.379,-9.778 9.779,-9.778c5.401,-0 9.778,4.378 9.778,9.778"/><path d="M72.618,102.628c0,1.794 -1.455,3.249 -3.249,3.249l-2.682,-0c-1.794,-0 -3.249,-1.455 -3.249,-3.249l0,-2.628c0,-1.794 1.455,-3.249 3.249,-3.249l2.682,-0c1.794,-0 3.249,1.455 3.249,3.249l0,2.628Z"/><path d="M72.456,114.524c-0,1.794 -1.455,3.249 -3.249,3.249l-2.682,0c-1.794,0 -3.249,-1.455 -3.249,-3.249l-0,-2.628c-0,-1.794 1.455,-3.249 3.249,-3.249l2.68,0c1.796,0 3.251,1.455 3.251,3.249l-0,2.628Z"/><path d="M84.353,114.416c-0,1.794 -1.455,3.249 -3.251,3.249l-2.68,-0c-1.794,-0 -3.249,-1.455 -3.249,-3.249l-0,-2.628c-0,-1.796 1.453,-3.249 3.249,-3.249l2.682,-0c1.794,-0 3.249,1.455 3.249,3.249l-0,2.628Z"/><path d="M84.407,102.519c-0,1.794 -1.455,3.249 -3.249,3.249l-2.682,0c-1.794,0 -3.249,-1.455 -3.249,-3.249l-0,-2.628c-0,-1.794 1.455,-3.249 3.249,-3.249l2.682,0c1.794,0 3.249,1.455 3.249,3.249l-0,2.628Z"/><path d="M148.595,43.241c2.736,-2.736 2.736,-7.173 0,-9.909c-2.736,-2.737 -7.173,-2.737 -9.91,0l-14.75,14.75l-23.49,-23.49c-2.767,-2.768 -7.257,-2.768 -10.026,-0c-2.767,2.769 -2.767,7.258 0,10.026l28.349,28.348c2.733,2.732 7.135,2.763 9.912,0.104c0.232,-0.18 0.457,-0.371 0.67,-0.584l19.245,-19.245Z" style="fill:#16873d;"/><path d="M147.443,113.536l-67.875,-67.875c-2.736,-2.736 -7.173,-2.736 -9.91,0c-0.008,0.008 -0.014,0.017 -0.023,0.026c-0.223,0.175 -0.442,0.363 -0.649,0.57l-42.695,42.694l-14.607,-14.605c-2.673,-2.673 -7.006,-2.673 -9.679,-0c-2.673,2.673 -2.673,7.006 -0,9.679l19.821,19.821c1.014,1.016 2.269,1.643 3.58,1.887c2.307,0.473 4.799,-0.183 6.59,-1.974l42.925,-42.925l62.612,62.613c2.736,2.736 7.174,2.736 9.91,-0c2.736,-2.738 2.736,-7.175 0,-9.911"/></g><g><path d="M188.978,87.807l-0,-51.054l4.698,0l0,12.375c0.382,-1.242 1.212,-2.36 2.495,-3.352c1.279,-0.993 2.768,-1.492 4.469,-1.492c1.927,-0 3.49,0.722 4.685,2.167c1.192,1.441 1.789,3.699 1.789,6.775l0,34.581l-4.725,0l-0,-34.237c-0,-1.985 -0.358,-3.318 -1.077,-3.997c-0.716,-0.678 -1.637,-1.016 -2.765,-1.016c-0.783,0 -1.552,0.159 -2.305,0.486c-0.756,0.324 -1.371,0.881 -1.85,1.675c-0.476,0.793 -0.716,1.876 -0.716,3.254l0,33.835l-4.698,0Z" style="fill-rule:nonzero;"/><path d="M223.733,84.254c1.144,-0 1.998,-0.402 2.562,-1.202c0.563,-0.804 0.931,-1.914 1.103,-3.338c0.173,-1.425 0.26,-3.082 0.26,-4.973l0,-17.218c0,-1.816 -0.087,-3.406 -0.26,-4.773c-0.172,-1.363 -0.54,-2.433 -1.103,-3.206c-0.564,-0.773 -1.418,-1.162 -2.562,-1.162c-1.222,0 -2.13,0.389 -2.724,1.162c-0.591,0.773 -0.969,1.843 -1.131,3.206c-0.162,1.367 -0.243,2.957 -0.243,4.773l-0,17.218c-0,1.891 0.088,3.548 0.256,4.973c0.172,1.424 0.554,2.534 1.148,3.338c0.591,0.8 1.489,1.202 2.694,1.202m-0,4.07c-1.989,0 -3.575,-0.371 -4.756,-1.103c-1.185,-0.736 -2.07,-1.773 -2.65,-3.109c-0.584,-1.337 -0.966,-2.934 -1.148,-4.787c-0.182,-1.849 -0.273,-3.895 -0.273,-6.13l-0,-14.612c-0,-2.694 0.202,-5.12 0.601,-7.277c0.405,-2.157 1.235,-3.862 2.494,-5.114c1.262,-1.249 3.17,-1.877 5.732,-1.877c1.927,-0 3.473,0.358 4.641,1.073c1.164,0.716 2.035,1.722 2.606,3.008c0.574,1.289 0.952,2.805 1.131,4.543c0.182,1.739 0.273,3.619 0.273,5.644l-0,14.612c-0,2.198 -0.081,4.216 -0.243,6.059c-0.162,1.843 -0.52,3.443 -1.073,4.8c-0.557,1.357 -1.411,2.407 -2.566,3.153c-1.158,0.743 -2.744,1.117 -4.769,1.117" style="fill-rule:nonzero;"/><path d="M240.463,87.807l0,-42.976l4.729,-0l0,4.327c0.362,-1.262 1.135,-2.39 2.319,-3.382c1.185,-0.993 2.61,-1.492 4.27,-1.492c1.374,-0 2.569,0.354 3.582,1.063c1.012,0.706 1.765,1.806 2.261,3.295c0.709,-1.28 1.702,-2.326 2.981,-3.14c1.279,-0.81 2.714,-1.218 4.3,-1.218c1.907,-0 3.467,0.719 4.668,2.15c1.202,1.431 1.806,3.686 1.806,6.765l0,34.608l-4.729,0l0,-34.838c0,-1.681 -0.354,-2.839 -1.06,-3.47c-0.705,-0.628 -1.623,-0.942 -2.751,-0.942c-1.66,0 -2.835,0.318 -3.524,0.959c-0.688,0.638 -1.029,1.867 -1.029,3.683l-0,34.608l-4.729,0l-0,-34.838c-0,-1.701 -0.348,-2.862 -1.047,-3.483c-0.695,-0.622 -1.599,-0.929 -2.707,-0.929c-1.488,0 -2.629,0.419 -3.422,1.259c-0.794,0.841 -1.189,2.063 -1.189,3.669l0,34.322l-4.729,0Z" style="fill-rule:nonzero;"/><path d="M283.87,62.651l7.595,-0l-0,-5.472c-0,-1.91 -0.051,-3.52 -0.145,-4.827c-0.095,-1.309 -0.382,-2.295 -0.858,-2.967c-0.479,-0.668 -1.293,-1.002 -2.437,-1.002c-1.202,-0 -2.103,0.371 -2.693,1.117c-0.595,0.746 -0.983,1.792 -1.175,3.139c-0.193,1.347 -0.287,2.927 -0.287,4.739l-0,5.273Zm3.983,25.67c-1.988,0 -3.568,-0.361 -4.743,-1.087c-1.174,-0.725 -2.045,-1.762 -2.605,-3.108c-0.564,-1.347 -0.929,-2.947 -1.091,-4.8c-0.162,-1.85 -0.243,-3.885 -0.243,-6.103l0,-14.64c0,-2.025 0.102,-3.902 0.301,-5.63c0.202,-1.728 0.601,-3.24 1.205,-4.54c0.601,-1.299 1.488,-2.309 2.663,-3.024c1.175,-0.716 2.727,-1.074 4.655,-1.074c1.951,0 3.476,0.368 4.587,1.104c1.107,0.733 1.914,1.762 2.42,3.079c0.507,1.316 0.824,2.865 0.959,4.641c0.135,1.775 0.202,3.696 0.202,5.758l0,7.42l-12.263,-0l0,8.654c0,3.112 0.203,5.438 0.615,6.977c0.411,1.536 1.515,2.306 3.308,2.306c1.168,-0 1.998,-0.368 2.494,-1.104c0.496,-0.736 0.81,-1.786 0.945,-3.149c0.132,-1.367 0.203,-2.998 0.203,-4.888l-0,-3.294l4.58,-0l0,1.519c0,2.197 -0.057,4.209 -0.169,6.032c-0.114,1.822 -0.415,3.402 -0.904,4.739c-0.486,1.34 -1.293,2.376 -2.42,3.112c-1.128,0.732 -2.694,1.1 -4.699,1.1" style="fill-rule:nonzero;"/><path d="M317.105,43.947c-1.981,0 -3.642,0.497 -4.934,1.479c-0.824,0.628 -1.492,1.411 -2.005,2.346l-0,-3.308l-7.352,-0l-0,43.709l7.352,-0l-0,-34.849c0.438,-0.725 1.029,-1.313 1.755,-1.748c0.773,-0.462 1.633,-0.8 2.555,-1.003c0.935,-0.202 1.85,-0.303 2.714,-0.303l0.368,-0l-0,-3.177c-0,-0.729 -0.004,-1.373 -0.014,-1.941c-0.017,-0.827 -0.02,-1.205 -0.439,-1.205" style="fill-rule:nonzero;"/><path d="M335.476,77.607c-0,1.36 -0.287,2.531 -0.851,3.48c-0.537,0.901 -1.401,1.34 -2.65,1.34c-1.151,-0 -1.927,-0.378 -2.376,-1.151c-0.479,-0.827 -0.726,-2.042 -0.726,-3.612l0,-33.201l-7.321,-0l-0,34.062c-0,2.332 0.324,4.27 0.962,5.758c0.648,1.516 1.566,2.653 2.734,3.379c1.161,0.719 2.518,1.084 4.034,1.084c1.883,-0 3.402,-0.524 4.516,-1.56c0.669,-0.618 1.232,-1.323 1.678,-2.103l-0,3.089l7.325,-0l-0,-43.709l-7.325,-0l-0,33.144Z" style="fill-rule:nonzero;"/><path d="M363.806,43.919c-1.839,0 -3.432,0.564 -4.735,1.678c-0.763,0.651 -1.378,1.367 -1.83,2.143l0,-3.277l-7.325,-0l0,43.709l7.325,-0l0,-33.458c0,-1.033 0.152,-1.904 0.452,-2.585c0.294,-0.665 0.719,-1.175 1.263,-1.516c0.553,-0.344 1.191,-0.517 1.897,-0.517c0.935,0 1.661,0.301 2.224,0.925c0.564,0.625 0.851,1.607 0.851,2.92l-0,34.231l7.321,-0l0,-34.46c0,-3.18 -0.638,-5.627 -1.893,-7.271c-1.283,-1.674 -3.15,-2.522 -5.55,-2.522" style="fill-rule:nonzero;"/><path d="M392.171,43.919c-1.839,0 -3.432,0.564 -4.735,1.678c-0.763,0.651 -1.377,1.367 -1.833,2.143l-0,-3.277l-7.322,-0l0,43.709l7.322,-0l-0,-33.458c-0,-1.033 0.155,-1.904 0.456,-2.585c0.293,-0.665 0.718,-1.175 1.262,-1.516c0.55,-0.344 1.191,-0.517 1.897,-0.517c0.932,0 1.661,0.301 2.221,0.925c0.567,0.625 0.854,1.607 0.854,2.92l-0,34.231l7.321,-0l0,-34.46c0,-3.18 -0.638,-5.627 -1.893,-7.271c-1.283,-1.674 -3.15,-2.522 -5.55,-2.522" style="fill-rule:nonzero;"/><path d="M413.425,57.179c-0,-1.448 0.071,-2.741 0.209,-3.852c0.138,-1.053 0.442,-1.886 0.915,-2.48c0.445,-0.561 1.131,-0.838 2.089,-0.838c0.82,0 1.391,0.227 1.742,0.689c0.378,0.496 0.628,1.269 0.743,2.295c0.124,1.084 0.185,2.424 0.185,3.983l0,5.134l-5.883,0l-0,-4.931Zm11.341,-9.249c-0.712,-1.269 -1.738,-2.265 -3.058,-2.953c-1.31,-0.682 -3.004,-1.03 -5.039,-1.03c-1.995,0 -3.7,0.341 -5.064,1.013c-1.37,0.678 -2.474,1.657 -3.284,2.909c-0.793,1.236 -1.374,2.724 -1.725,4.422c-0.347,1.678 -0.523,3.555 -0.523,5.576l-0,15.555c-0,2.244 0.132,4.313 0.388,6.156c0.267,1.867 0.76,3.494 1.475,4.834c0.726,1.367 1.789,2.437 3.156,3.173c1.357,0.733 3.136,1.104 5.29,1.104c2.207,-0 4.006,-0.358 5.353,-1.06c1.364,-0.709 2.403,-1.745 3.092,-3.078c0.679,-1.3 1.138,-2.9 1.374,-4.75c0.229,-1.819 0.344,-3.888 0.344,-6.15l0,-2.4l-7.237,0l0,3.98c0,1.505 -0.047,2.849 -0.142,3.993c-0.087,1.087 -0.34,1.931 -0.749,2.511c-0.381,0.544 -1.009,0.807 -1.921,0.807c-1.411,0 -2.214,-0.56 -2.524,-1.762c-0.345,-1.316 -0.52,-3.203 -0.52,-5.606l-0,-8.145l13.181,-0l-0,-8.935c-0,-2.07 -0.138,-3.983 -0.405,-5.685c-0.273,-1.725 -0.766,-3.23 -1.462,-4.479" style="fill-rule:nonzero;"/><path d="M447.476,45.154c-0.013,-0.831 -0.02,-1.205 -0.439,-1.205c-1.981,-0 -3.642,0.496 -4.935,1.478c-0.82,0.625 -1.492,1.411 -2.005,2.343l0,-3.308l-7.351,-0l-0,43.712l7.351,0l0,-34.848c0.439,-0.726 1.03,-1.313 1.756,-1.749c0.773,-0.462 1.633,-0.8 2.555,-1.002c0.935,-0.203 1.85,-0.307 2.717,-0.307l0.365,-0l-0,-3.173c-0,-0.729 -0.004,-1.378 -0.014,-1.941" style="fill-rule:nonzero;"/></g><g><path d="M127.295,9.779c0,5.401 -4.377,9.778 -9.778,9.778c-5.4,0 -9.779,-4.377 -9.779,-9.779c0,-5.4 4.379,-9.778 9.779,-9.778c5.401,-0 9.778,4.378 9.778,9.778"/><path d="M72.618,102.628c0,1.794 -1.455,3.249 -3.249,3.249l-2.682,-0c-1.794,-0 -3.249,-1.455 -3.249,-3.249l0,-2.628c0,-1.794 1.455,-3.249 3.249,-3.249l2.682,-0c1.794,-0 3.249,1.455 3.249,3.249l0,2.628Z"/><path d="M72.456,114.524c-0,1.794 -1.455,3.249 -3.249,3.249l-2.682,0c-1.794,0 -3.249,-1.455 -3.249,-3.249l-0,-2.628c-0,-1.794 1.455,-3.249 3.249,-3.249l2.68,0c1.796,0 3.251,1.455 3.251,3.249l-0,2.628Z"/><path d="M84.353,114.416c-0,1.794 -1.455,3.249 -3.251,3.249l-2.68,-0c-1.794,-0 -3.249,-1.455 -3.249,-3.249l-0,-2.628c-0,-1.796 1.453,-3.249 3.249,-3.249l2.682,-0c1.794,-0 3.249,1.455 3.249,3.249l-0,2.628Z"/><path d="M84.407,102.519c-0,1.794 -1.455,3.249 -3.249,3.249l-2.682,0c-1.794,0 -3.249,-1.455 -3.249,-3.249l-0,-2.628c-0,-1.794 1.455,-3.249 3.249,-3.249l2.682,0c1.794,0 3.249,1.455 3.249,3.249l-0,2.628Z"/><path d="M148.595,43.241c2.736,-2.736 2.736,-7.173 0,-9.909c-2.736,-2.737 -7.173,-2.737 -9.91,0l-14.75,14.75l-23.49,-23.49c-2.767,-2.768 -7.257,-2.768 -10.026,-0c-2.767,2.769 -2.767,7.258 0,10.026l28.349,28.348c2.733,2.732 7.135,2.763 9.912,0.104c0.232,-0.18 0.457,-0.371 0.67,-0.584l19.245,-19.245Z" style="fill:#16873d;"/><path d="M147.443,113.536l-67.875,-67.875c-2.736,-2.736 -7.173,-2.736 -9.91,0c-0.008,0.008 -0.014,0.017 -0.023,0.026c-0.223,0.175 -0.442,0.363 -0.649,0.57l-42.695,42.694l-14.607,-14.605c-2.673,-2.673 -7.006,-2.673 -9.679,-0c-2.673,2.673 -2.673,7.006 -0,9.679l19.821,19.821c1.014,1.016 2.269,1.643 3.58,1.887c2.307,0.473 4.799,-0.183 6.59,-1.974l42.925,-42.925l62.612,62.613c2.736,2.736 7.174,2.736 9.91,-0c2.736,-2.738 2.736,-7.175 0,-9.911"/></g><g><path d="M188.978,87.807l-0,-51.054l4.698,0l0,12.375c0.382,-1.242 1.212,-2.36 2.495,-3.352c1.279,-0.993 2.768,-1.492 4.469,-1.492c1.927,-0 3.49,0.722 4.685,2.167c1.192,1.441 1.789,3.699 1.789,6.775l0,34.581l-4.725,0l-0,-34.237c-0,-1.985 -0.358,-3.318 -1.077,-3.997c-0.716,-0.678 -1.637,-1.016 -2.765,-1.016c-0.783,0 -1.552,0.159 -2.305,0.486c-0.756,0.324 -1.371,0.881 -1.85,1.675c-0.476,0.793 -0.716,1.876 -0.716,3.254l0,33.835l-4.698,0Z" style="fill-rule:nonzero;"/><path d="M223.733,84.254c1.144,-0 1.998,-0.402 2.562,-1.202c0.563,-0.804 0.931,-1.914 1.103,-3.338c0.173,-1.425 0.26,-3.082 0.26,-4.973l0,-17.218c0,-1.816 -0.087,-3.406 -0.26,-4.773c-0.172,-1.363 -0.54,-2.433 -1.103,-3.206c-0.564,-0.773 -1.418,-1.162 -2.562,-1.162c-1.222,0 -2.13,0.389 -2.724,1.162c-0.591,0.773 -0.969,1.843 -1.131,3.206c-0.162,1.367 -0.243,2.957 -0.243,4.773l-0,17.218c-0,1.891 0.088,3.548 0.256,4.973c0.172,1.424 0.554,2.534 1.148,3.338c0.591,0.8 1.489,1.202 2.694,1.202m-0,4.07c-1.989,0 -3.575,-0.371 -4.756,-1.103c-1.185,-0.736 -2.07,-1.773 -2.65,-3.109c-0.584,-1.337 -0.966,-2.934 -1.148,-4.787c-0.182,-1.849 -0.273,-3.895 -0.273,-6.13l-0,-14.612c-0,-2.694 0.202,-5.12 0.601,-7.277c0.405,-2.157 1.235,-3.862 2.494,-5.114c1.262,-1.249 3.17,-1.877 5.732,-1.877c1.927,-0 3.473,0.358 4.641,1.073c1.164,0.716 2.035,1.722 2.606,3.008c0.574,1.289 0.952,2.805 1.131,4.543c0.182,1.739 0.273,3.619 0.273,5.644l-0,14.612c-0,2.198 -0.081,4.216 -0.243,6.059c-0.162,1.843 -0.52,3.443 -1.073,4.8c-0.557,1.357 -1.411,2.407 -2.566,3.153c-1.158,0.743 -2.744,1.117 -4.769,1.117" style="fill-rule:nonzero;"/><path d="M240.463,87.807l0,-42.976l4.729,-0l0,4.327c0.362,-1.262 1.135,-2.39 2.319,-3.382c1.185,-0.993 2.61,-1.492 4.27,-1.492c1.374,-0 2.569,0.354 3.582,1.063c1.012,0.706 1.765,1.806 2.261,3.295c0.709,-1.28 1.702,-2.326 2.981,-3.14c1.279,-0.81 2.714,-1.218 4.3,-1.218c1.907,-0 3.467,0.719 4.668,2.15c1.202,1.431 1.806,3.686 1.806,6.765l0,34.608l-4.729,0l0,-34.838c0,-1.681 -0.354,-2.839 -1.06,-3.47c-0.705,-0.628 -1.623,-0.942 -2.751,-0.942c-1.66,0 -2.835,0.318 -3.524,0.959c-0.688,0.638 -1.029,1.867 -1.029,3.683l-0,34.608l-4.729,0l-0,-34.838c-0,-1.701 -0.348,-2.862 -1.047,-3.483c-0.695,-0.622 -1.599,-0.929 -2.707,-0.929c-1.488,0 -2.629,0.419 -3.422,1.259c-0.794,0.841 -1.189,2.063 -1.189,3.669l0,34.322l-4.729,0Z" style="fill-rule:nonzero;"/><path d="M283.87,62.651l7.595,-0l-0,-5.472c-0,-1.91 -0.051,-3.52 -0.145,-4.827c-0.095,-1.309 -0.382,-2.295 -0.858,-2.967c-0.479,-0.668 -1.293,-1.002 -2.437,-1.002c-1.202,-0 -2.103,0.371 -2.693,1.117c-0.595,0.746 -0.983,1.792 -1.175,3.139c-0.193,1.347 -0.287,2.927 -0.287,4.739l-0,5.273Zm3.983,25.67c-1.988,0 -3.568,-0.361 -4.743,-1.087c-1.174,-0.725 -2.045,-1.762 -2.605,-3.108c-0.564,-1.347 -0.929,-2.947 -1.091,-4.8c-0.162,-1.85 -0.243,-3.885 -0.243,-6.103l0,-14.64c0,-2.025 0.102,-3.902 0.301,-5.63c0.202,-1.728 0.601,-3.24 1.205,-4.54c0.601,-1.299 1.488,-2.309 2.663,-3.024c1.175,-0.716 2.727,-1.074 4.655,-1.074c1.951,0 3.476,0.368 4.587,1.104c1.107,0.733 1.914,1.762 2.42,3.079c0.507,1.316 0.824,2.865 0.959,4.641c0.135,1.775 0.202,3.696 0.202,5.758l0,7.42l-12.263,-0l0,8.654c0,3.112 0.203,5.438 0.615,6.977c0.411,1.536 1.515,2.306 3.308,2.306c1.168,-0 1.998,-0.368 2.494,-1.104c0.496,-0.736 0.81,-1.786 0.945,-3.149c0.132,-1.367 0.203,-2.998 0.203,-4.888l-0,-3.294l4.58,-0l0,1.519c0,2.197 -0.057,4.209 -0.169,6.032c-0.114,1.822 -0.415,3.402 -0.904,4.739c-0.486,1.34 -1.293,2.376 -2.42,3.112c-1.128,0.732 -2.694,1.1 -4.699,1.1" style="fill-rule:nonzero;"/><path d="M317.105,43.947c-1.981,0 -3.642,0.497 -4.934,1.479c-0.824,0.628 -1.492,1.411 -2.005,2.346l-0,-3.308l-7.352,-0l-0,43.709l7.352,-0l-0,-34.849c0.438,-0.725 1.029,-1.313 1.755,-1.748c0.773,-0.462 1.633,-0.8 2.555,-1.003c0.935,-0.202 1.85,-0.303 2.714,-0.303l0.368,-0l-0,-3.177c-0,-0.729 -0.004,-1.373 -0.014,-1.941c-0.017,-0.827 -0.02,-1.205 -0.439,-1.205" style="fill-rule:nonzero;"/><path d="M335.476,77.607c-0,1.36 -0.287,2.531 -0.851,3.48c-0.537,0.901 -1.401,1.34 -2.65,1.34c-1.151,-0 -1.927,-0.378 -2.376,-1.151c-0.479,-0.827 -0.726,-2.042 -0.726,-3.612l0,-33.201l-7.321,-0l-0,34.062c-0,2.332 0.324,4.27 0.962,5.758c0.648,1.516 1.566,2.653 2.734,3.379c1.161,0.719 2.518,1.084 4.034,1.084c1.883,-0 3.402,-0.524 4.516,-1.56c0.669,-0.618 1.232,-1.323 1.678,-2.103l-0,3.089l7.325,-0l-0,-43.709l-7.325,-0l-0,33.144Z" style="fill-rule:nonzero;"/><path d="M363.806,43.919c-1.839,0 -3.432,0.564 -4.735,1.678c-0.763,0.651 -1.378,1.367 -1.83,2.143l0,-3.277l-7.325,-0l0,43.709l7.325,-0l0,-33.458c0,-1.033 0.152,-1.904 0.452,-2.585c0.294,-0.665 0.719,-1.175 1.263,-1.516c0.553,-0.344 1.191,-0.517 1.897,-0.517c0.935,0 1.661,0.301 2.224,0.925c0.564,0.625 0.851,1.607 0.851,2.92l-0,34.231l7.321,-0l0,-34.46c0,-3.18 -0.638,-5.627 -1.893,-7.271c-1.283,-1.674 -3.15,-2.522 -5.55,-2.522" style="fill-rule:nonzero;"/><path d="M392.171,43.919c-1.839,0 -3.432,0.564 -4.735,1.678c-0.763,0.651 -1.377,1.367 -1.833,2.143l-0,-3.277l-7.322,-0l0,43.709l7.322,-0l-0,-33.458c-0,-1.033 0.155,-1.904 0.456,-2.585c0.293,-0.665 0.718,-1.175 1.262,-1.516c0.55,-0.344 1.191,-0.517 1.897,-0.517c0.932,0 1.661,0.301 2.221,0.925c0.567,0.625 0.854,1.607 0.854,2.92l-0,34.231l7.321,-0l0,-34.46c0,-3.18 -0.638,-5.627 -1.893,-7.271c-1.283,-1.674 -3.15,-2.522 -5.55,-2.522" style="fill-rule:nonzero;"/><path d="M413.425,57.179c-0,-1.448 0.071,-2.741 0.209,-3.852c0.138,-1.053 0.442,-1.886 0.915,-2.48c0.445,-0.561 1.131,-0.838 2.089,-0.838c0.82,0 1.391,0.227 1.742,0.689c0.378,0.496 0.628,1.269 0.743,2.295c0.124,1.084 0.185,2.424 0.185,3.983l0,5.134l-5.883,0l-0,-4.931Zm11.341,-9.249c-0.712,-1.269 -1.738,-2.265 -3.058,-2.953c-1.31,-0.682 -3.004,-1.03 -5.039,-1.03c-1.995,0 -3.7,0.341 -5.064,1.013c-1.37,0.678 -2.474,1.657 -3.284,2.909c-0.793,1.236 -1.374,2.724 -1.725,4.422c-0.347,1.678 -0.523,3.555 -0.523,5.576l-0,15.555c-0,2.244 0.132,4.313 0.388,6.156c0.267,1.867 0.76,3.494 1.475,4.834c0.726,1.367 1.789,2.437 3.156,3.173c1.357,0.733 3.136,1.104 5.29,1.104c2.207,-0 4.006,-0.358 5.353,-1.06c1.364,-0.709 2.403,-1.745 3.092,-3.078c0.679,-1.3 1.138,-2.9 1.374,-4.75c0.229,-1.819 0.344,-3.888 0.344,-6.15l0,-2.4l-7.237,0l0,3.98c0,1.505 -0.047,2.849 -0.142,3.993c-0.087,1.087 -0.34,1.931 -0.749,2.511c-0.381,0.544 -1.009,0.807 -1.921,0.807c-1.411,0 -2.214,-0.56 -2.524,-1.762c-0.345,-1.316 -0.52,-3.203 -0.52,-5.606l-0,-8.145l13.181,-0l-0,-8.935c-0,-2.07 -0.138,-3.983 -0.405,-5.685c-0.273,-1.725 -0.766,-3.23 -1.462,-4.479" style="fill-rule:nonzero;"/><path d="M447.476,45.154c-0.013,-0.831 -0.02,-1.205 -0.439,-1.205c-1.981,-0 -3.642,0.496 -4.935,1.478c-0.82,0.625 -1.492,1.411 -2.005,2.343l0,-3.308l-7.351,-0l-0,43.712l7.351,0l0,-34.848c0.439,-0.726 1.03,-1.313 1.756,-1.749c0.773,-0.462 1.633,-0.8 2.555,-1.002c0.935,-0.203 1.85,-0.307 2.717,-0.307l0.365,-0l-0,-3.173c-0,-0.729 -0.004,-1.378 -0.014,-1.941" style="fill-rule:nonzero;"/></g></svg>